<?xml version="1.0" encoding="UTF-8" standalone="no"?>
<!-- Created with Inkscape (http://www.inkscape.org/) -->

<svg
   width="600"
   height="500"
   viewBox="0 0 158.75 132.29167"
   version="1.1"
   id="svg5"
   inkscape:version="1.1 (c68e22c387, 2021-05-23)"
   sodipodi:docname="logo.svg"
   xmlns:inkscape="http://www.inkscape.org/namespaces/inkscape"
   xmlns:sodipodi="http://sodipodi.sourceforge.net/DTD/sodipodi-0.dtd"
   xmlns="http://www.w3.org/2000/svg"
   xmlns:svg="http://www.w3.org/2000/svg">
  <sodipodi:namedview
     id="namedview7"
     pagecolor="#505050"
     bordercolor="#ffffff"
     borderopacity="1"
     inkscape:pageshadow="0"
     inkscape:pageopacity="0"
     inkscape:pagecheckerboard="1"
     inkscape:document-units="mm"
     showgrid="false"
     inkscape:zoom="0.77326038"
     inkscape:cx="397.66682"
     inkscape:cy="256.70525"
     inkscape:window-width="1916"
     inkscape:window-height="1031"
     inkscape:window-x="0"
     inkscape:window-y="0"
     inkscape:window-maximized="1"
     inkscape:current-layer="layer1"
     units="px"
     width="800px" />
  <defs
     id="defs2" />
  <g
     inkscape:label="Layer 1"
     inkscape:groupmode="layer"
     id="layer1">
    <g
       id="g4923"
       transform="translate(2.4913954,0.1938049)">
      <path
         style="fill:#666666;stroke:none;stroke-width:0.264583px;stroke-linecap:butt;stroke-linejoin:miter;stroke-opacity:1"
         d="M 77.949729,93.642354 77.835371,120.54582 77.9502,120.50892 54.687769,107.17674 Z"
         id="path98-6-2-75" />
      <path
         style="fill:#666666;stroke:none;stroke-width:0.264583px;stroke-linecap:butt;stroke-linejoin:miter;stroke-opacity:1"
         d="m 124.47365,66.573589 -0.11436,26.903465 0.11483,-0.0369 -23.26243,-13.332179 z"
         id="path98-6-2-23" />
      <path
         style="fill:#666666;stroke:none;stroke-width:0.264583px;stroke-linecap:butt;stroke-linejoin:miter;stroke-opacity:1"
         d="m 101.09686,80.14487 -0.11436,26.90347 0.11483,-0.0369 L 77.8349,93.679256 Z"
         id="path98-6-2-0" />
      <path
         style="fill:#666666;stroke:none;stroke-width:0.264583px;stroke-linecap:butt;stroke-linejoin:miter;stroke-opacity:1"
         d="m 124.58801,39.670089 -0.11436,26.903465 0.11483,-0.0369 -23.26243,-13.332179 z"
         id="path98-6-2-2" />
      <path
         style="fill:#666666;stroke:none;stroke-width:0.264583px;stroke-linecap:butt;stroke-linejoin:miter;stroke-opacity:1"
         d="m 101.09639,53.27831 -0.11436,26.903465 0.11483,-0.0369 -23.262431,-13.332179 z"
         id="path98-6-2-9" />
      <path
         style="fill:#666666;stroke:none;stroke-width:0.264583px;stroke-linecap:butt;stroke-linejoin:miter;stroke-opacity:1"
         d="m 101.21075,26.37481 -0.11436,26.903465 0.11483,-0.0369 -23.262431,-13.332179 z"
         id="path98-6-2-7"
         inkscape:transform-center-x="65.971423"
         inkscape:transform-center-y="-6.0945335" />
      <path
         style="fill:#666666;stroke:none;stroke-width:0.264583px;stroke-linecap:butt;stroke-linejoin:miter;stroke-opacity:1"
         d="m 78.177974,12.968826 -0.114358,26.903465 0.114829,-0.0369 -23.262431,-13.332179 z"
         id="path98-6-2-8"
         inkscape:transform-center-x="0.79908941"
         inkscape:transform-center-y="0.58927527" />
      <path
         style="fill:#666666;stroke:none;stroke-width:0.264583px;stroke-linecap:butt;stroke-linejoin:miter;stroke-opacity:1"
         d="M 54.916014,26.503212 54.801656,53.406674 54.916485,53.369815 31.654054,40.037638 Z"
         id="path98" />
      <path
         style="fill:#666666;stroke:none;stroke-width:0.264583px;stroke-linecap:butt;stroke-linejoin:miter;stroke-opacity:1"
         d="M 54.801656,53.406674 54.687298,80.310136 54.802127,80.273277 31.539696,66.9411 Z"
         id="path98-3" />
      <path
         style="fill:#666666;stroke:none;stroke-width:0.264583px;stroke-linecap:butt;stroke-linejoin:miter;stroke-opacity:1"
         d="m 54.802127,80.273277 -0.114358,26.903463 0.114829,-0.0369 -23.262431,-13.332177 z"
         id="path98-6" />
      <path
         style="fill:#666666;stroke:none;stroke-width:0.264583px;stroke-linecap:butt;stroke-linejoin:miter;stroke-opacity:1"
         d="M 77.949258,66.775758 77.8349,93.679223 77.949729,93.642323 54.687298,80.310144 Z"
         id="path98-6-2" />
      <path
         style="fill:#666666;stroke:none;stroke-width:0.264583px;stroke-linecap:butt;stroke-linejoin:miter;stroke-opacity:1"
         d="m 78.063616,39.872293 -0.114358,26.903465 0.114829,-0.0369 -23.262431,-13.332179 z"
         id="path98-6-2-1" />
      <path
         style="fill:#d4aa00;stroke:none;stroke-width:0.264583px;stroke-linecap:butt;stroke-linejoin:miter;stroke-opacity:1"
         d="M 31.540167,93.807665 31.654525,66.9042 31.539696,66.9411 54.802127,80.273281 Z"
         id="path98-6-7" />
      <path
         style="fill:#008080;stroke:none;stroke-width:0.264583px;stroke-linecap:butt;stroke-linejoin:miter;stroke-opacity:1"
         d="m 31.539696,66.941058 0.114358,-26.903465 -0.114829,0.0369 23.262431,13.332181 z"
         id="path98-6-7-5" />
      <path
         style="fill:#d45500;stroke:none;stroke-width:0.264583px;stroke-linecap:butt;stroke-linejoin:miter;stroke-opacity:1"
         d="m 54.687769,107.17674 0.114358,-26.903465 -0.114829,0.0369 23.262431,13.332181 z"
         id="path98-6-7-3" />
      <path
         style="fill:#ff2a2a;stroke:none;stroke-width:0.264583px;stroke-linecap:butt;stroke-linejoin:miter;stroke-opacity:1"
         d="m 54.687298,80.310138 0.114358,-26.903464 -0.114829,0.0369 23.262431,13.332181 z"
         id="path98-6-7-56" />
      <path
         style="fill:#ff5555;stroke:none;stroke-width:0.264583px;stroke-linecap:butt;stroke-linejoin:miter;stroke-opacity:1"
         d="m 54.801656,53.406677 0.114358,-26.903465 -0.114829,0.0369 23.262431,13.332181 z"
         id="path98-6-7-2" />
      <path
         style="fill:#000055;stroke:none;stroke-width:0.264583px;stroke-linecap:butt;stroke-linejoin:miter;stroke-opacity:1"
         d="m 77.835371,120.54582 0.114358,-26.903464 -0.114829,0.0369 23.26243,13.332184 z"
         id="path98-6-7-9" />
      <path
         style="fill:#0044aa;stroke:none;stroke-width:0.264583px;stroke-linecap:butt;stroke-linejoin:miter;stroke-opacity:1"
         d="m 77.949729,93.64232 0.114358,-26.903465 -0.114829,0.0369 23.262432,13.332185 z"
         id="path98-6-7-1" />
      <path
         style="fill:#212178;stroke:none;stroke-width:0.264583px;stroke-linecap:butt;stroke-linejoin:miter;stroke-opacity:1"
         d="m 77.949258,66.775758 0.114358,-26.903465 -0.114829,0.0369 23.262433,13.332181 z"
         id="path98-6-7-27" />
      <path
         style="fill:#000080;stroke:none;stroke-width:0.264583px;stroke-linecap:butt;stroke-linejoin:miter;stroke-opacity:1"
         d="m 77.948787,39.909193 0.114358,-26.903465 -0.114829,0.0369 23.262434,13.332181 z"
         id="path98-6-7-0" />
      <path
         style="fill:#00ff00;stroke:none;stroke-width:0.264583px;stroke-linecap:butt;stroke-linejoin:miter;stroke-opacity:1"
         d="m 101.21122,53.241374 0.11436,-26.903465 -0.11483,0.0369 23.26243,13.332181 z"
         id="path98-6-7-93" />
      <path
         style="fill:#ff0000;stroke:none;stroke-width:0.264583px;stroke-linecap:butt;stroke-linejoin:miter;stroke-opacity:1"
         d="m 101.21169,80.10794 0.11436,-26.903465 -0.11483,0.0369 23.26243,13.332181 z"
         id="path98-6-7-6" />
      <path
         style="fill:#0000ff;stroke:none;stroke-width:0.264583px;stroke-linecap:butt;stroke-linejoin:miter;stroke-opacity:1"
         d="m 101.09733,107.01144 0.11436,-26.903465 -0.11483,0.0369 23.26243,13.332181 z"
         id="path98-6-7-06" />
      <path
         style="fill:#000000;stroke-width:0.264583"
         d="m 73.938211,108.17694 c 0,-0.65484 0.0516,-0.92273 0.114662,-0.59531 0.06307,0.32742 0.06307,0.86321 0,1.19063 -0.06306,0.32742 -0.114662,0.0595 -0.114662,-0.59532 z m -2.940704,-0.52916 c 0,-0.3638 0.06005,-0.51263 0.133453,-0.33073 0.0734,0.1819 0.0734,0.47956 0,0.66146 -0.0734,0.1819 -0.133453,0.0331 -0.133453,-0.33073 z m 13.788621,-0.52917 c 0,-0.65484 0.0516,-0.92273 0.114662,-0.59531 0.06307,0.32742 0.06307,0.8632 0,1.19062 -0.06306,0.32743 -0.114662,0.0595 -0.114662,-0.59531 z m -13.751111,-1.85208 c 0,-0.80037 0.0496,-1.12779 0.110223,-0.72761 0.06062,0.40019 0.06062,1.05503 0,1.45521 -0.06062,0.40018 -0.110223,0.0728 -0.110223,-0.7276 z m 13.740432,-0.52917 c 0,-0.50932 0.05445,-0.71768 0.121002,-0.46302 0.06655,0.25466 0.06655,0.67138 0,0.92604 -0.06655,0.25466 -0.121002,0.0463 -0.121002,-0.46302 z m -2.360647,-1.45521 c 0.0016,-0.87312 0.05088,-1.19841 0.109765,-0.72286 0.05889,0.47555 0.05767,1.18992 -0.0027,1.5875 -0.06037,0.39757 -0.108551,0.008 -0.107067,-0.86464 z m 2.664855,-4.23333 c 5.29e-4,-1.74625 0.04334,-2.426194 0.09516,-1.510985 0.05181,0.915207 0.05139,2.343957 -0.0011,3.174995 -0.05234,0.83104 -0.09473,0.0822 -0.09421,-1.66401 z m -2.725952,-2.447395 c -0.01148,-2.801276 0.08302,-5.09323 0.21001,-5.09323 0.208931,0 0.116515,9.292365 -0.09868,9.921875 -0.04975,0.14552 -0.09985,-2.027369 -0.111334,-4.828645 z m -8.731251,3.748265 c 0.0127,-0.30823 0.07539,-0.37092 0.159851,-0.15985 0.07643,0.19099 0.06703,0.4192 -0.02088,0.50711 -0.08792,0.0879 -0.150452,-0.0683 -0.138964,-0.34726 z m -3.002037,-5.005036 c -0.111664,-2.619375 -0.277727,-6.459141 -0.36903,-8.532813 l -0.166005,-3.770312 h 1.890385 1.890382 l -0.05878,7.209896 -0.05878,7.209895 -0.147029,-6.217708 c -0.08087,-3.419739 -0.185348,-5.205677 -0.23218,-3.96875 -0.09799,2.588086 -0.276116,3.317145 -0.809043,3.31139 -0.263091,-0.0028 -0.385019,-0.329245 -0.396875,-1.062431 -0.01521,-0.941655 -0.08274,-1.049208 -0.612423,-0.975556 -0.360489,0.05012 -0.595312,-0.05605 -0.595312,-0.269171 0,-0.23413 0.309994,-0.337365 0.926042,-0.308391 0.509322,0.02394 0.926041,-0.05526 0.926041,-0.176022 0,-0.263951 -0.87345,-0.568211 -1.328589,-0.462806 -0.178782,0.0414 -0.379653,-0.07363 -0.446384,-0.25563 -0.07657,-0.20883 0.02857,-0.273389 0.284985,-0.174993 0.613786,0.235532 1.020961,-0.113035 0.627457,-0.537138 -0.239376,-0.257993 -0.381751,-0.272098 -0.526531,-0.05216 -0.333688,0.506909 -0.719103,-0.377799 -0.723554,-1.660877 -0.0021,-0.642716 -0.06007,-1.112557 -0.128537,-1.044088 -0.06847,0.06847 -0.0011,3.2137 0.149638,6.989407 0.15077,3.77571 0.236553,7.460237 0.190632,8.187841 -0.04592,0.727604 -0.174853,-0.820208 -0.286515,-3.439583 z m 9.61502,4.233333 c -0.04024,-0.291042 -0.09081,-2.017448 -0.112371,-3.836458 -0.03729,-3.145745 -0.06506,-3.303522 -0.568375,-3.230113 -0.445379,0.06496 -0.466326,0.03035 -0.132292,-0.21858 0.299286,-0.223036 0.31555,-0.328758 0.06615,-0.429956 -0.181901,-0.07381 -0.330729,-0.349493 -0.330729,-0.612635 0,-0.291724 -0.262359,-0.544282 -0.67228,-0.647165 -0.369753,-0.0928 -0.607714,-0.273198 -0.528802,-0.400884 0.07891,-0.127682 -0.09732,-0.16918 -0.391631,-0.09222 -0.447815,0.117108 -0.480245,0.206423 -0.198802,0.547519 0.278471,0.337494 0.268057,0.385217 -0.06057,0.277518 -0.218281,-0.07153 -0.543949,-0.418319 -0.723704,-0.77063 -0.283078,-0.554816 -0.331422,-0.304086 -0.361156,1.872977 -0.02813,2.060046 -0.07382,2.322597 -0.253236,1.455208 -0.120398,-0.582083 -0.225769,-3.171692 -0.234156,-5.754687 l -0.01525,-4.696354 2.447396,-1.93e-4 2.447396,-1.96e-4 -0.07024,7.474675 c -0.06905,7.347357 -0.16269,10.108427 -0.307343,9.062172 z M 76.43915,87.213455 c -0.05889,-0.475549 -0.10828,-0.150259 -0.109765,0.722866 -0.0016,0.873125 0.04669,1.26221 0.107067,0.864634 0.06037,-0.397576 0.06158,-1.111951 0.0027,-1.5875 z m 2.057207,-0.0096 c 0.353925,-0.08842 0.24715,-0.142369 -0.322426,-0.162898 -0.674852,-0.02432 -0.818216,0.05628 -0.690782,0.388368 0.08844,0.230481 0.233534,0.303787 0.322423,0.162899 0.08889,-0.140888 0.399744,-0.315653 0.690785,-0.388369 z m 0.06615,-0.640559 c -0.254661,-0.06655 -0.67138,-0.06655 -0.926042,0 -0.254661,0.06655 -0.0463,0.121002 0.463021,0.121002 0.509323,0 0.717683,-0.05445 0.463021,-0.121002 z m 1.259988,-2.945302 c -0.21024,-0.21024 -0.665152,0.267034 -0.503626,0.528384 0.109865,0.177766 0.246219,0.150704 0.386805,-0.07677 0.119417,-0.193223 0.171987,-0.396449 0.116821,-0.451618 z m -6.148864,15.033929 c 0,-0.654843 0.0516,-0.922734 0.114663,-0.595312 0.06307,0.327422 0.06307,0.863203 0,1.190625 -0.06306,0.327422 -0.114663,0.05953 -0.114663,-0.595313 z m 2.35096,-1.322889 c 0,-0.363802 0.06005,-0.512631 0.133453,-0.330729 0.0734,0.181901 0.0734,0.479557 0,0.661458 -0.0734,0.181901 -0.133453,0.03307 -0.133453,-0.330729 z m 9.172416,-4.784553 c -0.02543,-1.806884 -0.0918,-2.779228 -0.147505,-2.160765 -0.0557,0.618464 -0.213495,1.124479 -0.35065,1.124479 -0.231965,0 -0.36736,-0.760528 -0.270089,-1.517128 0.02461,-0.191445 -0.126587,-0.261819 -0.365527,-0.17013 -0.224126,0.08601 -0.409326,0.292463 -0.411554,0.458795 -0.0024,0.181595 -0.09606,0.157166 -0.234347,-0.06114 -0.126661,-0.199959 -0.245102,-1.798585 -0.263205,-3.5525 -0.0181,-1.753915 -0.09124,-3.247262 -0.162528,-3.318554 -0.07129,-0.07129 -0.129619,1.580914 -0.129619,3.671562 0,2.09065 -0.0893,3.688071 -0.198438,3.549827 -0.109141,-0.138245 -0.162229,-1.888464 -0.117972,-3.889375 l 0.08046,-3.638021 h 1.599039 1.599038 l -0.18955,6.283854 c -0.104254,3.45612 -0.23495,6.333463 -0.290441,6.394098 -0.05549,0.06063 -0.12169,-1.368118 -0.147114,-3.175 z m 0.240298,-8.239188 c -0.05589,-0.622311 -0.10241,-0.178972 -0.10337,0.985194 -0.0011,1.164167 0.04477,1.673328 0.101621,1.131472 0.05685,-0.541856 0.05764,-1.494356 0.0019,-2.116666 z m -12.86699,10.708632 c -0.0149,-0.181901 -0.212704,-0.33073 -0.439574,-0.33073 -0.226869,0 -0.337703,-0.121004 -0.2463,-0.268898 0.0914,-0.147894 0.277024,-0.200401 0.41249,-0.116676 0.135464,0.08372 0.246301,0.02614 0.246301,-0.127977 0,-0.36645 -0.608214,-0.359902 -0.978652,0.01053 -0.211256,0.211256 -0.341098,0.06143 -0.474969,-0.548087 -0.230868,-1.051131 -0.0428,-1.247841 0.774713,-0.810321 0.353764,0.189331 0.843092,0.267533 1.087393,0.173789 0.346503,-0.132966 0.401415,-0.06797 0.2497,0.295571 -0.106963,0.256313 -0.286625,0.823209 -0.399251,1.259771 -0.112622,0.436563 -0.216955,0.644922 -0.231851,0.463021 z m 5.264584,-1.334702 c -0.363802,-0.05778 -0.810287,-0.227298 -0.992188,-0.376692 -0.458115,-0.376251 -0.422767,-1.529752 0.04688,-1.529752 0.262491,0 0.348044,0.233608 0.280631,0.766283 -0.08934,0.70588 -0.03448,0.761955 0.695965,0.711386 0.436121,-0.0302 0.847561,0.03347 0.914313,0.141475 0.179874,0.291044 -0.198419,0.405982 -0.9456,0.2873 z m -6.875116,-3.311122 c -0.0028,-0.866979 0.08967,-1.214459 0.290113,-1.090581 0.161792,0.09999 0.398092,0.01773 0.525115,-0.182822 0.164233,-0.259292 0.232122,-0.154435 0.235003,0.362977 0.0028,0.508516 -0.13068,0.727604 -0.443394,0.727604 -0.400372,0 -0.396155,0.03751 0.04008,0.356489 0.337807,0.24701 0.393965,0.414314 0.182862,0.54478 -0.167566,0.103563 -0.306488,0.09197 -0.308716,-0.02577 -0.0022,-0.117716 -0.119468,-0.03545 -0.260533,0.182835 -0.185258,0.286666 -0.257606,0.04354 -0.260532,-0.875511 z M 66.75709,80.834372 c -0.162075,-0.195289 -0.224546,-0.425212 -0.138821,-0.510937 0.255656,-0.255653 0.897879,0.100151 0.897879,0.497444 0,0.4676 -0.376626,0.474297 -0.759058,0.01349 z m -0.894588,-1.143071 c 0.181901,-0.0734 0.479558,-0.0734 0.661459,0 0.181901,0.0734 0.03307,0.133453 -0.33073,0.133453 -0.363802,0 -0.51263,-0.06005 -0.330729,-0.133453 z m 5.497817,-0.04009 c -1.162404,-0.07338 -1.475636,-0.234763 -2.696141,-1.389063 -0.759516,-0.718317 -1.478558,-1.306033 -1.597869,-1.306033 -0.119314,0 -2.299333,0.296058 -4.844487,0.657907 -2.545151,0.361847 -4.876856,0.659503 -5.181563,0.661458 -0.540324,0.0035 -0.52242,-0.141306 0.724559,-5.858335 0.703215,-3.224038 1.345329,-5.92864 1.426922,-6.010232 0.08159,-0.08159 1.601007,-0.938414 3.37648,-1.904053 1.926172,-1.047599 3.210436,-1.904934 3.184253,-2.125705 -0.02413,-0.203499 -0.314783,-3.31955 -0.64588,-6.924553 -0.53226,-5.795296 -0.562258,-6.791034 -0.258966,-8.596029 1.130123,-6.725739 5.643901,-13.409299 10.209147,-15.116707 l 1.322916,-0.494773 0.132292,-1.663928 c 0.07276,-0.91516 0.26288,-1.706835 0.422489,-1.759277 0.198644,-0.06527 0.30806,0.987896 0.346819,3.338167 l 0.05662,3.433516 -1.339006,1.964868 c -0.736455,1.080677 -1.339006,2.039749 -1.339006,2.131272 0,0.09152 2.074418,0.166404 4.609814,0.166404 h 4.609817 l 0.954218,1.521355 c 0.524819,0.836744 1.203573,2.202616 1.508342,3.035269 0.336833,0.920263 0.747858,1.575405 1.048181,1.670724 1.389216,0.44092 1.351394,-0.934387 -0.10759,-3.912243 l -1.134272,-2.315105 h 0.965801 c 0.947833,0 0.983194,0.03815 1.900828,2.050521 2.114367,4.63681 2.400961,6.691387 1.905701,13.661826 -0.207978,2.927115 -0.379873,5.979308 -0.38199,6.78265 l -0.0038,1.460621 2.939545,1.462966 2.939542,1.462969 1.416502,5.675368 c 0.779074,3.121453 1.420813,5.800674 1.426081,5.953826 0.0066,0.192222 -0.95317,0.178231 -3.099274,-0.04519 -1.70987,-0.178001 -3.882761,-0.402733 -4.828646,-0.499406 l -1.719792,-0.175771 -1.455208,1.453457 -1.455209,1.453454 -7.011458,0.09042 c -3.856303,0.04973 -7.6033,0.05305 -8.326663,0.0074 z m 8.533599,-22.949757 c 3.458398,-1.444654 4.522375,-5.482169 2.241378,-8.505457 -1.734518,-2.298979 -5.775597,-2.567954 -7.960556,-0.529857 -1.608127,1.500036 -2.102789,4.293568 -1.133898,6.403517 1.152461,2.509708 4.274828,3.708794 6.853076,2.631797 z"
         id="path2514"
         sodipodi:nodetypes="ssssssssssssssssssssssssscscccsssssssssssscccccsscsssssssssscscsssssssssssssssssscccsssscsssssssssssssssssssssssssssssscsssssscccssssccsccsssssssssssssssssssssssscssscsssssssssssssssscssssssscssscssscsssscsssccccsssscccssssssss" />
    </g>
  </g>
</svg>
